<?xml version="1.0" encoding="UTF-8"?>
<svg id="Layer_1" data-name="Layer 1" xmlns="http://www.w3.org/2000/svg" viewBox="0 0 392.37 73.61">
  <defs>
    <style>
      .cls-1 {
        fill: #a9aab0;
      }

      .cls-2 {
        fill: #bef21c;
      }
    </style>
  </defs>
  <g>
    <path class="cls-1" d="M16.97,16.91v50.27h-5.41V16.91h5.41Z"/>
    <path class="cls-1" d="M42.67,16.91v8.74h.22c4.19-6.48,9.71-9.73,16.56-9.73,5.68,0,10.22,1.82,13.61,5.46,3.39,3.64,5.08,8.69,5.08,15.14v30.66h-5.36v-28.63c0-11.59-4.55-17.38-13.66-17.38-6.67,0-12.15,3.59-16.45,10.76v35.25h-5.35V16.91h5.35Z"/>
    <path class="cls-1" d="M125.42,20.19v5.79c-5.1-3.42-9.69-5.14-13.77-5.14-3.03,0-5.57.82-7.65,2.45-2.08,1.63-3.11,3.65-3.11,6.05,0,1.71.63,3.28,1.89,4.71,1.26,1.43,4.74,3.25,10.44,5.45,5.69,2.2,9.42,4.48,11.17,6.85,1.75,2.37,2.62,5.01,2.62,7.92,0,3.9-1.58,7.19-4.75,9.86-3.17,2.68-7.09,4.02-11.75,4.02-5.06,0-10.09-1.53-15.08-4.59v-5.25c5.94,3.06,11.2,4.59,15.79,4.59,3.1,0,5.64-.82,7.62-2.46,1.99-1.64,2.98-3.73,2.98-6.28,0-1.75-.65-3.36-1.94-4.83-1.29-1.47-4.79-3.34-10.49-5.6-5.7-2.26-9.4-4.49-11.09-6.7-1.69-2.2-2.54-4.65-2.54-7.35,0-3.82,1.57-7.08,4.73-9.75,3.15-2.68,6.99-4.02,11.5-4.02,4.12,0,8.6,1.42,13.44,4.26Z"/>
    <path class="cls-1" d="M185.82,40.18h-39.62c-.11.87-.16,1.75-.16,2.62,0,5.61,2,10.36,6.01,14.26,4.01,3.9,8.74,5.84,14.21,5.84,6.38,0,12.6-2.49,18.69-7.49v6.07c-5.76,4.44-12.2,6.67-19.34,6.67s-13.24-2.51-17.98-7.54c-4.74-5.03-7.1-11.42-7.1-19.18,0-7.36,2.19-13.45,6.56-18.28,4.37-4.83,9.87-7.24,16.5-7.24,6.23,0,11.49,2.18,15.79,6.53,4.3,4.35,6.45,10.26,6.45,17.73ZM146.92,35.87h32.57c-1.89-9.8-7.19-14.7-15.9-14.7-4.12,0-7.68,1.28-10.68,3.85-3.01,2.57-5,6.18-5.98,10.85Z"/>
    <path class="cls-1" d="M236.99,21.88l-3.11,5.03c-4.19-3.82-7.56-5.74-10.11-5.74-5.03,0-10.4,4.81-16.12,14.43v31.58h-5.36V16.91h5.36v13.22h.22c6.01-9.47,11.88-14.21,17.59-14.21,3.28,0,7.12,1.99,11.53,5.96Z"/>
    <path class="cls-1" d="M312.5,16.91v50.27h-5.41V16.91h5.41Z"/>
    <path class="cls-1" d="M356.23,15.92c7.29,0,13.36,2.5,18.22,7.49,4.86,4.99,7.3,11.22,7.3,18.69s-2.43,13.63-7.3,18.6c-4.86,4.97-10.94,7.46-18.22,7.46s-13.38-2.49-18.28-7.46c-4.9-4.97-7.35-11.17-7.35-18.6s2.45-13.7,7.35-18.69c4.9-4.99,10.99-7.49,18.28-7.49ZM356.23,62.92c5.65,0,10.36-1.97,14.15-5.93,3.79-3.95,5.68-8.92,5.68-14.89s-1.9-10.91-5.71-14.92c-3.81-4.01-8.52-6.01-14.13-6.01s-10.43,1.99-14.23,5.96c-3.81,3.97-5.71,8.96-5.71,14.97s1.9,10.94,5.71,14.89c3.8,3.95,8.55,5.93,14.23,5.93Z"/>
  </g>
  <path class="cls-2" d="M262.81,20.47c0-1.45.66-2.7,1.99-3.75,1.32-1.05,2.92-1.57,4.79-1.57s3.45.53,4.76,1.57c1.31,1.05,1.96,2.3,1.96,3.75s-.65,2.76-1.96,3.8c-1.3,1.05-2.89,1.57-4.76,1.57s-3.47-.53-4.79-1.57c-1.33-1.05-1.99-2.32-1.99-3.8Z"/>
  <path class="cls-2" d="M286.79,25.62c-4.74-4.84-10.93-7.5-17.43-7.5-6.09,0-11.97,2.37-16.58,6.68l-2.29-2.45c5.23-4.89,11.94-7.58,18.87-7.58,7.41,0,14.45,3.02,19.83,8.51l-2.4,2.35Z"/>
  <polygon class="cls-2" points="270.49 72.2 240.16 5.32 10.62 5.32 10.62 1.41 242.68 1.41 270.24 62.16 294.15 1.41 312.5 1.41 312.5 5.32 296.81 5.32 270.49 72.2"/>
</svg>